# Blender v2.83.5 OBJ File: ''
# www.blender.org
mtllib 树01.mtl
o 平面.002_平面.007
v -1.814827 4.690520 2.448220
v -1.814827 0.208645 1.134989
v 1.487580 5.619115 -0.720944
v 1.487580 1.137240 -2.034176
v -1.651203 4.581640 -1.433187
v 1.651204 4.581640 1.869219
v -1.651204 -0.088668 -1.433187
v 1.651203 -0.088668 1.869219
v 0.000000 4.581640 2.375832
v 0.000000 -0.088668 2.375832
v 0.000000 4.581640 -2.294477
v 0.000000 -0.088668 -2.294477
v -2.171190 4.922547 -0.236078
v -2.877371 0.312040 -0.473385
v 2.320760 4.180931 0.805160
v 1.614578 -0.429575 0.567853
vt 0.999800 0.999800
vt 0.500200 0.999800
vt 0.500200 0.500200
vt 0.999800 0.500200
vt 0.999800 0.499800
vt 0.500200 0.499800
vt 0.500200 0.000200
vt 0.999800 0.000200
vt 0.499800 0.499800
vt 0.000200 0.499800
vt 0.000200 0.000200
vt 0.499800 0.000200
vt 0.499800 0.999800
vt 0.000200 0.999800
vt 0.000200 0.500200
vt 0.499800 0.500200
vn -0.7071 0.1988 -0.6786
vn 0.7071 -0.0000 -0.7071
vn -1.0000 -0.0000 0.0000
vn 0.2282 0.0152 -0.9735
usemtl 材质
s off
f 1/1/1 3/2/1 4/3/1 2/4/1
f 5/5/2 6/6/2 8/7/2 7/8/2
f 9/9/3 11/10/3 12/11/3 10/12/3
f 13/13/4 15/14/4 16/15/4 14/16/4
