# Blender v2.83.5 OBJ File: ''
# www.blender.org
mtllib 树02.mtl
o 平面.002_平面.007
v -0.366674 5.412264 2.989054
v -0.217116 0.872013 1.904831
v 0.372033 6.506394 -1.490786
v 0.521591 1.966144 -2.575009
vt 0.999800 0.999800
vt 0.500200 0.999800
vt 0.500200 0.500200
vt 0.999800 0.500200
vn -0.9869 0.0060 -0.1613
usemtl 材质
s off
f 1/1/1 3/2/1 4/3/1 2/4/1
o 平面.001_平面.009
v -0.452822 4.308901 -2.053691
v -0.452823 -0.361408 -2.053690
v 0.237664 4.308901 2.565293
v 0.237664 -0.361408 2.565293
vt 0.999800 0.499800
vt 0.500200 0.499800
vt 0.500200 0.000200
vt 0.999800 0.000200
vn 0.9890 -0.0000 -0.1478
usemtl 材质
s off
f 5/5/2 7/6/2 8/7/2 6/8/2
o 平面.003_平面.010
v 0.000000 4.581640 2.375832
v 0.000000 -0.088668 2.375832
v 0.000000 4.581640 -2.294477
v 0.000000 -0.088668 -2.294477
vt 0.499800 0.499800
vt 0.000200 0.499800
vt 0.000200 0.000200
vt 0.499800 0.000200
vn -1.0000 -0.0000 0.0000
usemtl 材质
s off
f 9/9/3 11/10/3 12/11/3 10/12/3
o 平面.004_平面.011
v -1.460164 5.032058 -1.579713
v -1.089436 0.471060 -2.513330
v 1.208641 4.472851 2.211930
v 1.579369 -0.088147 1.278313
vt 0.499800 0.999800
vt 0.000200 0.999800
vt 0.000200 0.500200
vt 0.499800 0.500200
vn 0.8168 0.1787 -0.5486
usemtl 材质
s off
f 13/13/4 15/14/4 16/15/4 14/16/4
