# Blender v2.83.5 OBJ File: ''
# www.blender.org
mtllib 树3.mtl
o 平面.002_平面.002_平面.002_平面.033
v -2.085414 4.095912 0.243883
v -1.636343 -0.551593 0.347833
v 2.471173 4.515295 -0.690688
v 2.920244 -0.132210 -0.586738
v -2.092827 4.564886 0.785290
v 2.286023 5.302220 -0.661706
v 2.963084 0.691048 -0.962482
v -1.415766 -0.046285 0.484515
v -1.047362 3.977353 -2.270212
v -1.047364 -0.605429 -1.370277
v 2.333750 4.598166 0.891187
v 2.333749 0.015385 1.791122
v -1.448869 4.672533 0.500836
v -2.175161 0.062026 0.666686
v 2.926781 3.930917 -0.953636
v 2.200487 -0.679589 -0.787786
vt 0.499800 0.499800
vt 0.000200 0.499800
vt 0.000200 0.000200
vt 0.499800 0.000200
vt 0.999800 0.999800
vt 0.500200 0.999800
vt 0.500200 0.500200
vt 0.999800 0.500200
vt 0.999800 0.499800
vt 0.500200 0.499800
vt 0.500200 0.000200
vt 0.999800 0.000200
vt 0.499800 0.999800
vt 0.000200 0.999800
vt 0.000200 0.500200
vt 0.499800 0.500200
vn -0.1971 -0.0410 -0.9795
vn -0.3161 0.0155 -0.9486
vn 0.6898 -0.1395 -0.7104
vn -0.3131 0.0152 -0.9496
usemtl 材质.004
s 1
f 1/1/1 3/2/1 4/3/1 2/4/1
f 5/5/2 6/6/2 7/7/2 8/8/2
f 9/9/3 11/10/3 12/11/3 10/12/3
f 13/13/4 15/14/4 16/15/4 14/16/4
