# Blender v2.83.5 OBJ File: ''
# www.blender.org
mtllib 樱花树1.mtl
o 1.002_平面.002_平面.025
v -0.407533 4.318898 2.514091
v -0.586698 -0.248093 2.536168
v 0.449970 4.263558 -1.974965
v 0.270804 -0.303433 -1.952889
v 0.268436 5.289841 0.413032
v -0.485731 1.125125 2.138247
v 1.084406 3.443424 -3.687570
v 0.330239 -0.721292 -1.962354
v 0.052280 4.860913 2.596394
v 0.052280 -0.421724 2.596392
v 0.052280 4.860914 -1.974164
v 0.052280 -0.421723 -1.974166
v 1.443446 5.065081 1.331039
v 0.615165 0.617459 1.981120
v -0.345230 4.784783 -2.865636
v -1.173511 0.337163 -2.215554
vt 0.999800 0.999800
vt 0.500200 0.999800
vt 0.500200 0.500200
vt 0.999800 0.500200
vt 0.999800 0.499800
vt 0.500200 0.499800
vt 0.500200 0.000200
vt 0.999800 0.000200
vt 0.499800 0.499800
vt 0.000200 0.499800
vt 0.000200 0.000200
vt 0.499800 0.000200
vt 0.499800 0.999800
vt 0.000200 0.999800
vt 0.000200 0.500200
vt 0.499800 0.500200
vn -0.9815 0.0376 -0.1879
vn -0.9700 0.0807 -0.2293
vn -1.0000 0.0000 0.0000
vn -0.9022 0.2221 0.3697
usemtl 材质.001
s 1
f 1/1/1 3/2/1 4/3/1 2/4/1
f 5/5/2 7/6/2 8/7/2 6/8/2
f 9/9/3 11/10/3 12/11/3 10/12/3
f 13/13/4 15/14/4 16/15/4 14/16/4
